HIERARCHY
ROOT Hips
{
	OFFSET	0.00	0.00	0.00
	CHANNELS 6 Xposition Yposition Zposition Zrotation Xrotation Yrotation
	JOINT Spine
	{
		OFFSET	 0.00	0.01	 0.00
		CHANNELS 3 Zrotation Xrotation Yrotation
		JOINT Spine1
		{
			OFFSET	 0.00	 2.45913012437421	 0.00
			CHANNELS 3 Zrotation Xrotation Yrotation
            JOINT Neck
            {
                OFFSET	 0.00	 2.48462964506057	 0.00
                CHANNELS 3 Zrotation Xrotation Yrotation
                JOINT Head
                {
                    OFFSET	 0.00	 0.927524780924562	 0.00
                    CHANNELS 3 Zrotation Xrotation Yrotation
                    End Site 
                    {
                        OFFSET	 0.00	 1.14999962169752	 0.00
                    }
                }
            }
			JOINT LeftShoulder
			{
				OFFSET	 0.00	 2.48462964506057	 0.00
				CHANNELS 3 Zrotation Xrotation Yrotation
				JOINT LeftUpArm
				{
					OFFSET	 0.00	 1.24881979654096	 0.00
					CHANNELS 3 Zrotation Xrotation Yrotation
					JOINT LeftForeArm
					{
						OFFSET	 0.00	2.59758046908119	 0.00
						CHANNELS 3 Zrotation Xrotation Yrotation
						JOINT LeftHand
						{
							OFFSET	 0.00	2.45542024364365	 0.00
							CHANNELS 3 Zrotation Xrotation Yrotation
							JOINT LeftHandThumb 
							{
								OFFSET	 0.00	0.00	 0.00
								CHANNELS 3 Zrotation Xrotation Yrotation
								End Site
								{
									OFFSET	 0.00	0.00	1.00000003353624
								}
							}
							JOINT L_Wrist_End 
							{
								OFFSET	 0.00	0.99999967115358	 0.00
								CHANNELS 3 Zrotation Xrotation Yrotation
								End Site 
								{
									OFFSET	 0.00	 0.00	 0.00
								}
							}
						}
					}
				}
			}
			JOINT RightShoulder
			{
				OFFSET	 0.00	 2.48462964506057	 0.00
				CHANNELS 3 Zrotation Xrotation Yrotation
				JOINT RightUpArm
				{
					OFFSET	 0.00	 1.24881979654096	 0.00
					CHANNELS 3 Zrotation Xrotation Yrotation
					JOINT RightForeArm
					{
						OFFSET	 0.00	2.59758046908119	 0.00
						CHANNELS 3 Zrotation Xrotation Yrotation
						JOINT RightHand
						{
							OFFSET	 0.00	2.45542024364365	 0.00
							CHANNELS 3 Zrotation Xrotation Yrotation
							JOINT RightHandThumb 
							{
								OFFSET	 0.00	0.00	 0.00
								CHANNELS 3 Zrotation Xrotation Yrotation
								End Site
								{
									OFFSET	 0.00	0.00	1.00000003353624
								}
							}
							JOINT R_Wrist_End 
							{
								OFFSET	 0.00	0.99999967115358	 0.00
								CHANNELS 3 Zrotation Xrotation Yrotation
								End Site 
								{
									OFFSET	 0.00	 0.00	 0.00
								}
							}
						}
					}
				}
			}
		}
	}
	JOINT LeftUpLeg
	{
		OFFSET	 1.2719394002717	 0.00	 0.00
		CHANNELS 3 Zrotation Xrotation Yrotation
		JOINT LeftLowLeg
		{
			OFFSET	 0.00	-4.3429100912261	 0.00
			CHANNELS 3 Zrotation Xrotation Yrotation
			JOINT LeftFoot
			{
				OFFSET	 0.00	-4.48767017425826	 0.00
				CHANNELS 3 Zrotation Xrotation Yrotation
				JOINT LeftToeBase
                {
                    OFFSET	 0.00	0.00	 1.51507020887566
                    CHANNELS 3 Zrotation Xrotation Yrotation
                    End Site 
                    {
                        OFFSET	 0.00	0.00	 0.75000010571191
                    }
                }
			}
		}
	}
	JOINT RightUpLeg
	{
		OFFSET	 -1.2719393604653	 0.00	 0.00
		CHANNELS 3 Zrotation Xrotation Yrotation
		JOINT RightLowLeg
		{
			OFFSET	 0.00	-4.3429100912261	 0.00
			CHANNELS 3 Zrotation Xrotation Yrotation
			JOINT RightFoot
			{
				OFFSET	 0.00	-4.48767017425826	 0.00
				CHANNELS 3 Zrotation Xrotation Yrotation
				JOINT RightToeBase
                {
                    OFFSET	 0.00	0.00	 1.51507020887566
                    CHANNELS 3 Zrotation Xrotation Yrotation
                    End Site 
                    {
                        OFFSET	 0.00	0.00	 0.749999965609858
                    }
                }   
			}
		}
	}
}
MOTION 
Frames:	11 
Frame Time: 0.02 
 -3.237309875488281 5.436090087890625 9.2572998046875 66.0454 84.7816 -428.643 2.4562 -18.7247 -2.42333 -13.012 22.4793 9.41248 20.497 50.2393 -373.569 -3.9443 -81.3225 -365.639 -116.7338 -0.115387 367.677 -40.2452 9.51805 32.7797 0.0 24.6479 0.0 -5.15892 -30.5909 -2.61974 0.0 0.0 0.0 0.0 0.0 0.0 121.9456 -3.71278 -724.397 48.0781 4.15152 -14.5596 0.0 22.5902 0.0 5.98197 -9.41284 25.5214 0.0 0.0 0.0 0.0 0.0 0.0 -6.21779 1.73653 -731.381 0.0 15.3719 0.0 -17.3562 -6.440901 11.1357 0.0 -20.190239 0.0 2.39179 0.572111 738.792 0.0 22.4805 0.0 30.9228 -17.5644 -8.26293 0.0 -16.09161 0.0 
  -3.237760009765625 5.4366998291015625 9.257249755859375 65.8495 84.7893 -428.469 2.43769 -18.7129 -2.45252 -12.9863 22.47 9.40021 20.4662 50.3623 -373.497 -4.0204 -81.3276 -365.737 -116.703 -0.103869 367.676 -40.292 9.50428 32.7766 0.0 24.6604 0.0 -5.16413 -30.5808 -2.6282 0.0 0.0 0.0 0.0 0.0 0.0 121.9269 -3.68412 -724.432 48.0891 4.13713 -14.543 0.0 22.5613 0.0 6.24048 -9.68635 25.3909 0.0 0.0 0.0 0.0 0.0 0.0 -6.20969 1.72197 -731.39 0.0 15.4295 0.0 -17.345 -6.4722004 11.1592 0.0 -20.209099 0.0 2.3851 0.553666 738.672 0.0 22.5194 0.0 30.8923 -17.4836 -8.1402 0.0 -16.11739 0.0 
  -3.2315899658203127 5.4406500244140625 9.283200073242188 57.8907 86.0669 -420.986 4.79802 -19.2667 -0.965187 -14.1813 23.7616 9.04425 21.2727 50.1757 -374.07 -0.901919 -81.9594 -362.389 -116.4648 0.211188 367.267 -39.9841 9.60411 32.7081 0.0 24.6002 0.0 -5.16219 -30.4001 -2.64895 0.0 0.0 0.0 0.0 0.0 0.0 122.8301 -3.37351 -723.905 47.6811 4.16975 -14.5064 0.0 22.4672 0.0 6.36281 -9.59402 25.4614 0.0 0.0 0.0 0.0 0.0 0.0 -4.89327 1.73046 -731.131 0.0 15.5312 0.0 -17.2368 -6.791401 11.3338 0.0 -20.05137 0.0 2.72722 1.11697 733.939 0.0 20.2494 0.0 29.7651 -13.521999 -5.77508 0.0 -17.1743 0.0 
  -3.2318301391601563 5.444810180664063 9.284869995117187 53.6692 85.9382 -416.788 4.8017 -18.8697 -0.969286 -14.1229 23.6763 8.96196 21.3708 50.4479 -374.121 -1.20851 -82.1675 -362.711 -116.6825 0.347322 367.195 -39.7172 9.35443 32.679 0.0 24.7269 0.0 -5.20081 -30.4336 -2.69732 0.0 0.0 0.0 0.0 0.0 0.0 122.9783 -3.31956 -724.018 47.4883 4.19961 -14.4179 0.0 22.4819 0.0 6.48538 -9.69376 25.3945 0.0 0.0 0.0 0.0 0.0 0.0 -4.85215 1.98277 -731.034 0.0 15.6059 0.0 -17.3213 -6.7782 11.261 0.0 -20.03145 0.0 2.72531 1.39998 733.653 0.0 20.213 0.0 29.1968 -13.257799 -5.88544 0.0 -17.324009 0.0 
  -3.232760009765625 5.442310180664062 9.284439697265626 54.6731 86.0102 -417.836 4.84122 -19.0408 -0.937715 -14.1914 23.7511 8.99082 21.5264 50.3779 -374.303 -0.957719 -82.0241 -362.378 -116.513 0.242152 367.31 -39.8714 9.60791 32.7143 0.0 24.6351 0.0 -5.16378 -30.3824 -2.65335 0.0 0.0 0.0 0.0 0.0 0.0 122.906296 -3.34189 -723.973 47.6108 4.19046 -14.5108 0.0 22.4474 0.0 6.45923 -9.63988 25.4208 0.0 0.0 0.0 0.0 0.0 0.0 -4.81927 1.88401 -730.929 0.0 15.6481 0.0 -17.2941 -6.8006 11.1859 0.0 -20.0604 0.0 2.73196 1.31758 733.558 0.0 20.1834 0.0 29.093 -13.188299 -5.84684 0.0 -17.38274 0.0 
  -3.234010009765625 5.4397900390625 9.283049926757812 55.0602 85.9328 -418.159 4.65832 -19.04 -1.09038 -14.092 23.6918 9.00316 21.5075 50.4772 -374.291 -1.31339 -81.9737 -362.752 -116.53 0.351157 367.171 -39.9017 9.30654 32.7406 0.0 24.742 0.0 -5.12412 -30.4092 -2.59572 0.0 0.0 0.0 0.0 0.0 0.0 122.850494 -3.34648 -723.97 47.6264 4.11267 -14.5159 0.0 22.504 0.0 6.49715 -9.75386 25.4298 0.0 0.0 0.0 0.0 0.0 0.0 -4.88693 1.89977 -730.957 0.0 15.676 0.0 -17.3065 -6.7861996 11.1508 0.0 -20.05174 0.0 2.85361 1.24674 734.629 0.0 20.5631 0.0 28.7929 -13.7227 -6.80355 0.0 -17.36244 0.0 
  -3.2349899291992186 5.438579711914063 9.282869873046875 53.2069 85.8798 -416.406 4.6307 -18.8888 -1.11225 -14.0151 23.5923 8.97002 21.638 50.7771 -374.399 -1.82221 -82.0146 -363.266 -116.527 0.36229 367.184 -39.927 9.24153 32.829 0.0 24.7215 0.0 -5.2025 -30.4213 -2.70112 0.0 0.0 0.0 0.0 0.0 0.0 122.8235 -3.3079 -724.0 47.6225 4.04567 -14.5312 0.0 22.4718 0.0 6.53528 -9.68423 25.5382 0.0 0.0 0.0 0.0 0.0 0.0 -4.8613 2.01118 -730.835 0.0 15.766 0.0 -17.3154 -6.8297997 11.1065 0.0 -20.07131 0.0 2.84304 1.34505 734.456 0.0 20.6277 0.0 29.1788 -13.6355 -6.34201 0.0 -17.31087 0.0 
  -3.2349899291992186 5.438579711914063 9.282869873046875 53.2069 85.8798 -416.406 4.6307 -18.8888 -1.11225 -14.0151 23.5923 8.97002 21.638 50.7771 -374.399 -1.82221 -82.0146 -363.266 -116.527 0.36229 367.184 -39.927 9.24153 32.829 0.0 24.7215 0.0 -5.2025 -30.4213 -2.70112 0.0 0.0 0.0 0.0 0.0 0.0 122.8235 -3.3079 -724.0 47.6225 4.04567 -14.5312 0.0 22.4718 0.0 6.53528 -9.68423 25.5382 0.0 0.0 0.0 0.0 0.0 0.0 -4.8613 2.01118 -730.835 0.0 15.766 0.0 -17.3154 -6.8297997 11.1065 0.0 -20.07131 0.0 2.84304 1.34505 734.456 0.0 20.6277 0.0 29.1788 -13.6355 -6.34201 0.0 -17.31087 0.0 
  -3.23489013671875 5.435159912109375 9.282360229492188 53.6334 85.9137 -416.872 4.71236 -18.8411 -0.973755 -14.0858 23.3493 8.89538 22.0363 51.0255 -374.774 -1.7799 -82.0241 -363.185 -116.4092 0.286252 367.42 -39.9789 9.40108 32.8648 0.0 24.6159 0.0 -5.26413 -30.3894 -2.78937 0.0 0.0 0.0 0.0 0.0 0.0 122.8973 -3.41805 -724.03 47.6062 3.95488 -14.5632 0.0 22.5258 0.0 6.50759 -9.62898 25.5225 0.0 0.0 0.0 0.0 0.0 0.0 -4.85606 1.96381 -730.786 0.0 15.828 0.0 -17.3308 -6.8747005 11.0737 0.0 -20.07474 0.0 2.85872 1.28976 734.579 0.0 20.7035 0.0 29.0253 -13.6523 -6.41181 0.0 -17.3515 0.0 
  -3.2347198486328126 5.43468017578125 9.282340087890624 52.7057 85.8928 -415.992 4.75754 -18.724 -0.9187 -14.107 23.2166 8.82191 22.1649 51.2385 -374.859 -1.90731 -82.0619 -363.281 -116.3799 0.382643 367.299 -39.994 9.12211 32.8851 0.0 24.6797 0.0 -5.2165 -30.3948 -2.72364 0.0 0.0 0.0 0.0 0.0 0.0 122.9123 -3.41399 -724.049 47.6136 3.91225 -14.5743 0.0 22.512 0.0 6.4987 -9.61345 25.591 0.0 0.0 0.0 0.0 0.0 0.0 -4.84304 2.00919 -730.73 0.0 15.8906 0.0 -17.2937 -6.8971996 11.0697 0.0 -20.053669 0.0 2.84838 1.32688 734.445 0.0 20.7471 0.0 29.1571 -13.577299 -6.18463 0.0 -17.3565 0.0 
  -3.24072998046875 5.432930297851563 9.257880249023437 61.1309 84.8019 -424.171 2.62721 -18.1517 -2.23345 -12.9829 21.8733 9.18858 21.4351 51.6249 -374.299 -5.02801 -81.5227 -366.614 -116.6157 0.079066 367.882 -40.2314 9.13054 32.8648 0.0 24.7896 0.0 -5.25079 -30.5787 -2.74759 0.0 0.0 0.0 0.0 0.0 0.0 122.047 -3.67623 -724.519 48.0104 3.83322 -14.6195 0.0 22.5777 0.0 6.42446 -9.78126 25.2678 0.0 0.0 0.0 0.0 0.0 0.0 -6.03057 1.93477 -730.714 0.0 15.8865 0.0 -17.355 -6.6429005 10.8471 0.0 -20.17151 0.0 2.37993 0.786506 737.877 0.0 22.6254 0.0 30.2069 -16.7284 -7.56353 0.0 -16.4406 0.0 
